<svg xmlns="http://www.w3.org/2000/svg" width="500" height="450"><g fill="none" stroke="#000" stroke-width="5.033"><path d="M163.838 44.976c-63.45 0-113.136 19.064-113.136 43.4 0 24.334 49.687 43.398 113.136 43.398 63.436 0 113.13-19.064 113.13-43.4.004-24.334-49.694-43.398-113.13-43.398zm0 77.132c-60.11 0-101.995-17.78-101.995-33.737 0-15.954 41.887-33.732 101.995-33.732 60.097 0 101.983 17.777 101.983 33.733.006 15.963-41.885 33.738-101.982 33.738zM98.103 88.943c0 15.81 32.092 24.082 63.796 24.082 31.708 0 63.802-8.273 63.802-24.082 0-31.614-127.6-31.614-127.6 0zM161.9 103.36c-32.144 0-52.648-8.54-52.648-14.417 0-5.88 20.504-14.417 52.647-14.417 32.145 0 52.656 8.537 52.656 14.417 0 5.878-20.51 14.417-52.657 14.417zM312.263 266.346V90.226C312.263 53.65 247.393 25 164.58 25 81.767 25 16.894 53.65 16.894 90.226v285.05c0 36.574 64.873 65.22 147.684 65.22 82.808 0 147.683-28.65 147.683-65.22V267.494c.018-.378.117-.753.117-1.14h-.117v-.008zm-11.145 108.93c0 30.12-62.527 55.56-136.54 55.56-74.01 0-136.538-25.44-136.538-55.56v-89.872c16.702 14.646 52.367 25.878 98.473 29.99-.632.992-1.14 2.007-1.665 3.03-3.017 5.23-4.794 10.983-4.794 17.1 0 22.86 23.495 41.463 52.385 41.463 22.127 0 41.002-10.955 48.655-26.346 2.916-5.154 4.606-10.817 4.606-16.823 0-7.037-2.356-13.965-6.767-20.13 38.36-4.99 67.28-14.863 82.175-27.376v88.966h.01zm-169.046-41.468c0-4.14 1.21-8.17 3.302-11.99 6.663-10.67 20.7-18.11 37.066-18.11 22.74 0 41.238 14.268 41.238 31.81 0 3.985-1.063 7.764-2.806 11.28-6.456 11.056-20.827 18.816-37.557 18.816-22.74-.008-41.243-14.27-41.243-31.806zm169.046-66.626c-1.266 16.57-39.995 32.47-93.143 38.04h-.02c-9.35-6.875-21.775-11.175-35.51-11.175-14.53 0-27.688 4.718-37.19 12.317-60.837-4.276-106.52-21.358-106.52-40.01h-.69v-150.86c21.943 23.675 74.13 39.955 136.54 39.955s114.594-16.277 136.533-39.956v151.688zm-136.54-121.4c-74.01 0-136.538-25.437-136.538-55.56 0-30.12 62.528-55.56 136.54-55.56 74.01 0 136.538 25.44 136.538 55.56 0 30.126-62.528 55.56-136.54 55.56z"/></g></svg>