<svg
   xmlns="http://www.w3.org/2000/svg"
   version="1.1"
   width="340"
   height="450">
    <g
       transform="matrix(0.9652474,0,0,0.83679904,-75,25)">
      
        <path
           d="m 247.437,23.872 c -65.733,0 -117.209,22.782 -117.209,51.863 0,29.081 51.476,51.863 117.209,51.863 65.72,0 117.202,-22.782 117.202,-51.863 0.005,-29.081 -51.482,-51.863 -117.202,-51.863 z"
           style="fill:#006064;fill-opacity:0.63800905;stroke:#000000;stroke-width:2.22535896;stroke-miterlimit:4;stroke-opacity:1;stroke-dasharray:none" />
        <path
           d="m 401.206,288.416 0,-210.469 C 401.206,34.237 334,0 248.205,0 162.412,0 95.204,34.237 95.204,77.947 l 0,340.643 c 0,43.707 67.208,77.94 153.001,77.94 85.79,0 153.001,-34.237 153.001,-77.94 l 0,-128.802 c 0.019,-0.452 0.121,-0.9 0.121,-1.362 l -0.121,0 z M 389.66,418.59 c 0,35.993 -64.779,66.395 -141.455,66.395 -76.675,0 -141.455,-30.401 -141.455,-66.395 l 0,-107.399 c 17.303,17.502 54.252,30.924 102.018,35.838 -0.654,1.186 -1.181,2.399 -1.725,3.622 -3.125,6.249 -4.966,13.124 -4.966,20.433 0,27.321 24.341,49.551 54.271,49.551 22.924,0 42.479,-13.092 50.408,-31.484 3.021,-6.161 4.771,-12.928 4.771,-20.105 0,-8.41 -2.441,-16.689 -7.011,-24.055 39.74,-5.965 69.703,-17.763 85.133,-32.716 l 0,106.315 z M 214.527,369.035 c 0,-4.947 1.253,-9.764 3.421,-14.328 6.903,-12.75 21.445,-21.641 38.401,-21.641 23.559,0 42.722,17.049 42.722,38.013 0,4.761 -1.101,9.278 -2.907,13.479 -6.688,13.213 -21.576,22.486 -38.909,22.486 -23.558,-0.01 -42.728,-17.054 -42.728,-38.009 z m 33.678,-224.696 c -76.675,0 -141.455,-30.399 -141.455,-66.396 0,-35.995 64.779,-66.396 141.455,-66.396 76.676,0 141.455,30.401 141.455,66.396 0,36.001 -64.78,66.396 -141.455,66.396 z"
           style="fill:#43a047;fill-opacity:1;stroke:#000000;stroke-width:2.22535896;stroke-linecap:round;stroke-linejoin:round;stroke-miterlimit:1;stroke-opacity:1;stroke-dasharray:none" />
      
  </g>
</svg>
