<svg
   xmlns="http://www.w3.org/2000/svg"
   version="1.1"
   width="340"
   height="450">
  
  <g transform="matrix(0.9652474,0,0,0.83679904,-75,25)">
    <path
       d="m 247.437,23.872 c -65.733,0 -117.209,22.782 -117.209,51.863 0,29.081 51.476,51.863 117.209,51.863 65.72,0 117.202,-22.782 117.202,-51.863 0.005,-29.081 -51.482,-51.863 -117.202,-51.863 z m 0,92.175 C 185.164,116.047 141.77,94.8 141.77,75.73 c 0,-19.067 43.395,-40.312 105.667,-40.312 62.261,0 105.655,21.244 105.655,40.312 0.005,19.075 -43.394,40.317 -105.655,40.317 z"/>
    <path
       d="m 179.335,76.414 c 0,18.892 33.248,28.779 66.093,28.779 32.851,0 66.1,-9.887 66.1,-28.779 0,-37.78 -132.193,-37.78 -132.193,0 z m 66.093,17.229 c -33.3,0 -54.542,-10.205 -54.542,-17.229 0,-7.026 21.242,-17.229 54.542,-17.229 33.304,0 54.553,10.202 54.553,17.229 0,7.024 -21.249,17.229 -54.553,17.229 z"/>
    <path
       d="m 401.206,288.416 0,-210.469 C 401.206,34.237 334,0 248.205,0 162.412,0 95.204,34.237 95.204,77.947 l 0,340.643 c 0,43.707 67.208,77.94 153.001,77.94 85.79,0 153.001,-34.237 153.001,-77.94 l 0,-128.802 c 0.019,-0.452 0.121,-0.9 0.121,-1.362 l -0.121,0 z M 389.66,418.59 c 0,35.993 -64.779,66.395 -141.455,66.395 -76.675,0 -141.455,-30.401 -141.455,-66.395 l 0,-107.399 c 21.25386,35.16161 100.18077,49.72294 146.95906,46.66163 52.87136,1.5096 100.3496,-10.47987 135.93994,-45.57763 l 0,106.315 z m 0,-129.175 C 365.98743,314.10707 309.67548,334.52133 251.40633,335.09967 188.87419,335.68632 128.70688,317.55098 107.471,288.426 l -0.716,0 0,-180.283 c 22.733,28.292 76.799,47.747 141.455,47.747 64.657,0 118.721,-19.45 141.45,-47.747 z M 248.205,144.339 c -76.675,0 -141.455,-30.399 -141.455,-66.396 0,-35.995 64.779,-66.396 141.455,-66.396 76.676,0 141.455,30.401 141.455,66.396 0,36.001 -64.78,66.396 -141.455,66.396 z"/>
  </g>
</svg>
